<svg xmlns="http://www.w3.org/2000/svg" xmlns:xlink="http://www.w3.org/1999/xlink" width="500" zoomAndPan="magnify" viewBox="0 0 375 374.999991" height="500" preserveAspectRatio="xMidYMid meet" version="1.0"><defs><clipPath id="2919cf5864"><path d="M 20.03125 62 L 355 62 L 355 313.148438 L 20.03125 313.148438 Z M 20.03125 62 " clip-rule="nonzero"/></clipPath></defs><g clip-path="url(#2919cf5864)"><path fill="#231274" d="M 354.269531 302.679688 C 354.273438 303.769531 354.105469 304.839844 353.769531 305.878906 C 353.433594 306.917969 352.945312 307.882812 352.304688 308.769531 C 351.664062 309.65625 350.90625 310.425781 350.023438 311.074219 C 349.144531 311.71875 348.183594 312.214844 347.144531 312.5625 C 346.078125 312.921875 344.976562 313.101562 343.847656 313.101562 C 343.039062 313.101562 342.242188 313.007812 341.453125 312.820312 C 340.664062 312.636719 339.910156 312.359375 339.1875 312 C 338.464844 311.636719 337.789062 311.195312 337.171875 310.675781 C 336.550781 310.160156 335.996094 309.574219 335.511719 308.925781 C 333.207031 305.871094 330.820312 302.886719 328.34375 299.96875 C 325.871094 297.050781 323.3125 294.210938 320.675781 291.4375 C 318.035156 288.667969 315.320312 285.976562 312.523438 283.367188 C 309.730469 280.753906 306.863281 278.222656 303.921875 275.773438 C 300.984375 273.328125 297.976562 270.964844 294.898438 268.691406 C 291.824219 266.417969 288.683594 264.234375 285.480469 262.140625 C 282.277344 260.046875 279.019531 258.046875 275.703125 256.144531 C 272.382812 254.238281 269.015625 252.429688 265.59375 250.71875 C 262.171875 249.007812 258.703125 247.398438 255.1875 245.886719 C 251.671875 244.375 248.117188 242.96875 244.523438 241.664062 C 240.925781 240.355469 237.296875 239.15625 233.632812 238.058594 C 229.964844 236.964844 226.273438 235.972656 222.550781 235.089844 C 218.828125 234.207031 215.082031 233.433594 211.316406 232.765625 C 207.550781 232.097656 203.765625 231.539062 199.96875 231.089844 C 196.167969 230.640625 192.359375 230.300781 188.539062 230.070312 C 184.722656 229.84375 180.898438 229.722656 177.074219 229.714844 L 156.226562 229.714844 L 156.226562 281.832031 C 156.226562 282.839844 156.082031 283.828125 155.792969 284.796875 C 155.507812 285.765625 155.085938 286.671875 154.535156 287.515625 C 153.984375 288.363281 153.324219 289.113281 152.558594 289.765625 C 151.789062 290.421875 150.941406 290.953125 150.019531 291.359375 C 149.09375 291.769531 148.132812 292.039062 147.132812 292.167969 C 146.132812 292.296875 145.132812 292.28125 144.136719 292.117188 C 143.140625 291.957031 142.1875 291.660156 141.277344 291.222656 C 140.367188 290.78125 139.539062 290.226562 138.789062 289.546875 L 24.132812 185.3125 C 23.597656 184.824219 23.117188 184.285156 22.691406 183.695312 C 22.265625 183.105469 21.90625 182.480469 21.613281 181.816406 C 21.320312 181.152344 21.097656 180.464844 20.949219 179.753906 C 20.796875 179.042969 20.722656 178.324219 20.722656 177.597656 C 20.722656 176.871094 20.796875 176.152344 20.949219 175.441406 C 21.097656 174.730469 21.320312 174.042969 21.613281 173.378906 C 21.90625 172.714844 22.265625 172.089844 22.691406 171.5 C 23.117188 170.910156 23.597656 170.371094 24.132812 169.882812 L 138.789062 65.648438 C 139.539062 64.96875 140.367188 64.410156 141.277344 63.972656 C 142.1875 63.535156 143.140625 63.238281 144.136719 63.074219 C 145.132812 62.914062 146.132812 62.898438 147.132812 63.027344 C 148.132812 63.15625 149.09375 63.425781 150.019531 63.835938 C 150.941406 64.242188 151.789062 64.773438 152.558594 65.429688 C 153.324219 66.082031 153.984375 66.832031 154.535156 67.679688 C 155.085938 68.523438 155.507812 69.429688 155.792969 70.398438 C 156.082031 71.367188 156.226562 72.355469 156.226562 73.363281 L 156.226562 125.480469 L 177.074219 125.480469 C 179.972656 125.484375 182.871094 125.558594 185.765625 125.703125 C 188.660156 125.847656 191.550781 126.066406 194.4375 126.351562 C 197.320312 126.636719 200.195312 126.996094 203.066406 127.425781 C 205.933594 127.851562 208.785156 128.351562 211.628906 128.917969 C 214.472656 129.484375 217.300781 130.125 220.113281 130.828125 C 222.921875 131.535156 225.714844 132.3125 228.488281 133.15625 C 231.261719 134 234.015625 134.910156 236.742188 135.886719 C 239.472656 136.867188 242.175781 137.910156 244.855469 139.023438 C 247.53125 140.132812 250.179688 141.308594 252.800781 142.550781 C 255.421875 143.789062 258.007812 145.09375 260.566406 146.460938 C 263.121094 147.828125 265.640625 149.257812 268.128906 150.75 C 270.613281 152.242188 273.0625 153.792969 275.472656 155.40625 C 277.882812 157.015625 280.253906 158.683594 282.582031 160.414062 C 284.910156 162.140625 287.191406 163.921875 289.433594 165.761719 C 291.675781 167.601562 293.867188 169.496094 296.015625 171.441406 C 298.164062 173.390625 300.261719 175.386719 302.3125 177.4375 C 304.363281 179.488281 306.363281 181.585938 308.308594 183.734375 C 310.257812 185.882812 312.148438 188.078125 313.988281 190.316406 C 315.828125 192.558594 317.613281 194.84375 319.339844 197.171875 C 321.066406 199.5 322.734375 201.867188 324.347656 204.277344 C 325.957031 206.6875 327.511719 209.136719 329 211.625 C 330.492188 214.109375 331.921875 216.628906 333.289062 219.1875 C 334.65625 221.742188 335.960938 224.332031 337.203125 226.949219 C 338.441406 229.570312 339.621094 232.21875 340.730469 234.898438 C 341.839844 237.574219 342.886719 240.277344 343.863281 243.007812 C 344.84375 245.738281 345.753906 248.488281 346.597656 251.261719 C 347.441406 254.035156 348.214844 256.828125 348.921875 259.640625 C 349.628906 262.453125 350.265625 265.277344 350.832031 268.121094 C 351.402344 270.964844 351.898438 273.820312 352.328125 276.6875 C 352.753906 279.554688 353.113281 282.429688 353.398438 285.316406 C 353.6875 288.199219 353.902344 291.089844 354.046875 293.984375 C 354.195312 296.882812 354.269531 299.777344 354.269531 302.679688 Z M 354.269531 302.679688 " fill-opacity="1" fill-rule="nonzero"/></g></svg>